<?xml version="1.0" encoding="iso-8859-1"?>
<!-- Generator: Adobe Illustrator 19.0.0, SVG Export Plug-In . SVG Version: 6.00 Build 0)  -->
<svg version="1.1" id="Capa_1" xmlns="http://www.w3.org/2000/svg" xmlns:xlink="http://www.w3.org/1999/xlink" x="0px" y="0px"
	 viewBox="0 0 76 76" style="enable-background:new 0 0 76 76;" xml:space="preserve">
<g>
	<path style="fill:#231F20;" d="M64,28.435V2H12v26.434L0,39.102V74h76V39.102L64,28.435z M60,6v39.124L37.998,57.696L16,45.126V6
		H60z M72,70H4V40.897l8-7.112v9.055l-1.01-0.576l-1.984,3.473l28.992,16.567L66.99,45.736l-1.984-3.473L64,42.839v-9.053l8,7.111
		V70z"/>
	<rect x="22" y="10" style="fill:#231F20;" width="20" height="4"/>
	<rect x="22" y="18" style="fill:#231F20;" width="32" height="4"/>
	<rect x="22" y="26" style="fill:#231F20;" width="32" height="4"/>
	<rect x="22" y="34" style="fill:#231F20;" width="32" height="4"/>
	<rect x="22" y="42" style="fill:#231F20;" width="32" height="4"/>
</g>
<g>
</g>
<g>
</g>
<g>
</g>
<g>
</g>
<g>
</g>
<g>
</g>
<g>
</g>
<g>
</g>
<g>
</g>
<g>
</g>
<g>
</g>
<g>
</g>
<g>
</g>
<g>
</g>
<g>
</g>
</svg>
